<svg xmlns="http://www.w3.org/2000/svg" width="520.903" height="521.988" viewBox="0 0 520.903 521.988">
  <g id="Group_1" data-name="Group 1" transform="translate(-37.186 -159.951)">
    <path id="Path_1" data-name="Path 1" d="M150.376,492.321a5.2,5.2,0,0,0-1.924-.8l-1.723-.4a10.842,10.842,0,0,1-2.233-.691,1.46,1.46,0,0,1-.753-1.364,2.039,2.039,0,0,1,.637-1.485,2.877,2.877,0,0,1,2.094-.639,3.013,3.013,0,0,1,2.558.993,3.274,3.274,0,0,1,.53,1.563h1.614a3.512,3.512,0,0,0-1.357-3.078,5.547,5.547,0,0,0-3.3-.963,4.54,4.54,0,0,0-3.26,1.1,3.705,3.705,0,0,0-1.151,2.805,2.679,2.679,0,0,0,1.171,2.375,7.387,7.387,0,0,0,2.308.837l1.665.389a6.21,6.21,0,0,1,1.99.751,1.675,1.675,0,0,1,.627,1.476,1.942,1.942,0,0,1-1.48,1.916,4.942,4.942,0,0,1-1.7.277,3.2,3.2,0,0,1-2.9-1.261,3.557,3.557,0,0,1-.49-1.752h-1.615a4.127,4.127,0,0,0,1.28,3.255,5.115,5.115,0,0,0,3.612,1.208,6.568,6.568,0,0,0,3.473-.906,3.247,3.247,0,0,0,1.494-3.013A3.044,3.044,0,0,0,150.376,492.321Z" fill="#161615"/>
    <path id="Path_2" data-name="Path 2" d="M162.1,485.769l-4.776,12.682h1.761l1.375-3.8h4.976l1.324,3.8h1.882l-4.6-12.682Zm-1.133,7.485,2.029-5.6,1.952,5.6Z" fill="#161615"/>
    <path id="Path_3" data-name="Path 3" d="M176.325,485.769h-1.718v12.682h8.081V496.94h-6.363Z" fill="#161615"/>
    <path id="Path_4" data-name="Path 4" d="M197.269,493.608a4.726,4.726,0,0,1-.426,2.184,3.075,3.075,0,0,1-2.994,1.494,2.751,2.751,0,0,1-2.611-1.382,4.58,4.58,0,0,1-.522-2.3v-7.839h-1.735v7.122a8.223,8.223,0,0,0,.632,3.6q1.152,2.3,4.375,2.3t4.384-2.3a8.223,8.223,0,0,0,.632-3.6v-7.122h-1.735Z" fill="#161615"/>
    <path id="Path_5" data-name="Path 5" d="M212.114,496.491l-3.647-10.722h-2.461v12.682h1.64v-7.485q0-.449-.026-1.4t-.026-1.42v-.389l3.656,10.7h1.7l3.621-10.7q0,1.027-.017,1.925t-.018,1.287v7.485h1.641V485.769h-2.444Z" fill="#161615"/>
    <path id="Path_6" data-name="Path 6" d="M227.036,492.641h6.958v-1.468h-6.958v-3.85h7.528v-1.554h-9.2v12.682h9.333V496.94h-7.658Z" fill="#161615"/>
    <path id="Path_7" data-name="Path 7" d="M251.417,497.389a5.162,5.162,0,0,1-.121-1.079l-.061-1.7a2.857,2.857,0,0,0-.418-1.6,2.6,2.6,0,0,0-1.118-.794,3.408,3.408,0,0,0,1.316-1.166,3.365,3.365,0,0,0,.471-1.865,3,3,0,0,0-1.755-3,5.659,5.659,0,0,0-2.348-.423h-5.765v12.682h1.718v-5.439h3.8a3.623,3.623,0,0,1,1.5.233,1.789,1.789,0,0,1,.9,1.666l.1,2.116a8.244,8.244,0,0,0,.086,1,1.574,1.574,0,0,0,.139.423h2.106v-.285A1.058,1.058,0,0,1,251.417,497.389Zm-2.36-6.293a3.171,3.171,0,0,1-1.859.483h-3.862v-4.334h4.08a3.052,3.052,0,0,1,1.369.259,1.883,1.883,0,0,1,.957,1.847A1.994,1.994,0,0,1,249.057,491.1Z" fill="#161615"/>
    <rect id="Rectangle_1" data-name="Rectangle 1" width="1.735" height="12.682" transform="translate(258.988 485.769)" fill="#161615"/>
    <path id="Path_8" data-name="Path 8" d="M271.633,485.769l-4.776,12.682h1.761l1.376-3.8h4.975l1.324,3.8h1.882l-4.6-12.682Zm-1.133,7.485,2.029-5.6,1.953,5.6Z" fill="#161615"/>
    <path id="Path_9" data-name="Path 9" d="M300.715,494.812a9.451,9.451,0,0,0,.584-2.335h-1.476a9.672,9.672,0,0,1-.183.954q-.089.34-.318,1.031l-2.3-2.765a7.194,7.194,0,0,0,1.495-1.234,3.221,3.221,0,0,0,.765-2.131,2.466,2.466,0,0,0-.74-1.8,2.757,2.757,0,0,0-2.057-.751,3.028,3.028,0,0,0-2.212.807,2.723,2.723,0,0,0-.827,2.033,3.071,3.071,0,0,0,.272,1.218,6.524,6.524,0,0,0,1.075,1.554,9.512,9.512,0,0,0-1.988,1.467,3.469,3.469,0,0,0-.87,2.409,3.639,3.639,0,0,0,.895,2.4,3.537,3.537,0,0,0,2.865,1.067,4.458,4.458,0,0,0,2.357-.622,6.194,6.194,0,0,0,1.29-1.123l1.186,1.451h2l-2.248-2.738Q300.277,495.93,300.715,494.812Zm-5.572-7.093a1.4,1.4,0,0,1,1.321-.638,1.281,1.281,0,0,1,1,.4,1.385,1.385,0,0,1,.369.965,1.95,1.95,0,0,1-.5,1.3,6.473,6.473,0,0,1-1.118.939,9.25,9.25,0,0,1-.964-1.249,1.934,1.934,0,0,1-.29-1.008A1.4,1.4,0,0,1,295.143,487.719Zm2.3,9.221a2.974,2.974,0,0,1-1.641.44,2.588,2.588,0,0,1-1.569-.544,1.814,1.814,0,0,1-.734-1.553,2.312,2.312,0,0,1,.566-1.58,8.7,8.7,0,0,1,1.579-1.244l2.856,3.5A3.578,3.578,0,0,1,297.448,496.94Z" fill="#161615"/>
    <path id="Path_10" data-name="Path 10" d="M323.418,493.09h3.971a4.221,4.221,0,0,1-1.13,3.224,4,4,0,0,1-2.788,1,3.566,3.566,0,0,1-3.172-1.42,6.382,6.382,0,0,1-.974-3.682,5.751,5.751,0,0,1,1.18-3.937,3.742,3.742,0,0,1,2.9-1.32,4.267,4.267,0,0,1,2.409.634,3.1,3.1,0,0,1,1.26,2.024h1.7a4.509,4.509,0,0,0-2.28-3.479,6.352,6.352,0,0,0-3.047-.69,5.372,5.372,0,0,0-4.186,1.795,7.274,7.274,0,0,0-1.7,5.068,7,7,0,0,0,1.741,5.025,5.464,5.464,0,0,0,3.814,1.459,5.623,5.623,0,0,0,2.828-.639,6.463,6.463,0,0,0,1.52-1.33l.414,1.632h1.1v-6.786h-5.568Z" fill="#161615"/>
    <path id="Path_11" data-name="Path 11" d="M339.93,485.769l-4.775,12.682h1.761l1.375-3.8h4.976l1.324,3.8h1.882l-4.6-12.682Zm-1.132,7.485,2.029-5.6,1.952,5.6Z" fill="#161615"/>
    <path id="Path_12" data-name="Path 12" d="M360.639,492.321a5.207,5.207,0,0,0-1.924-.8l-1.723-.4a10.859,10.859,0,0,1-2.234-.691,1.46,1.46,0,0,1-.753-1.364,2.04,2.04,0,0,1,.638-1.485,2.875,2.875,0,0,1,2.094-.639,3.01,3.01,0,0,1,2.557.993,3.264,3.264,0,0,1,.53,1.563h1.614a3.513,3.513,0,0,0-1.356-3.078,5.552,5.552,0,0,0-3.3-.963,4.537,4.537,0,0,0-3.259,1.1,3.7,3.7,0,0,0-1.151,2.805,2.679,2.679,0,0,0,1.171,2.375,7.377,7.377,0,0,0,2.308.837l1.664.389a6.217,6.217,0,0,1,1.991.751,1.675,1.675,0,0,1,.627,1.476,1.944,1.944,0,0,1-1.48,1.916,4.952,4.952,0,0,1-1.7.277,3.2,3.2,0,0,1-2.9-1.261,3.556,3.556,0,0,1-.491-1.752h-1.614a4.126,4.126,0,0,0,1.279,3.255,5.115,5.115,0,0,0,3.612,1.208,6.566,6.566,0,0,0,3.473-.906,3.246,3.246,0,0,0,1.495-3.013A3.047,3.047,0,0,0,360.639,492.321Z" fill="#161615"/>
    <path id="Path_13" data-name="Path 13" d="M367.594,487.28h4.274v11.171H373.6V487.28h4.273v-1.511H367.594Z" fill="#161615"/>
    <path id="Path_14" data-name="Path 14" d="M393.882,497.389a5.3,5.3,0,0,1-.121-1.079l-.06-1.7a2.856,2.856,0,0,0-.419-1.6,2.589,2.589,0,0,0-1.118-.794,3.119,3.119,0,0,0,1.787-3.031,3,3,0,0,0-1.755-3,5.659,5.659,0,0,0-2.348-.423h-5.765v12.682H385.8v-5.439h3.8a3.629,3.629,0,0,1,1.5.233,1.786,1.786,0,0,1,.9,1.666l.1,2.116a8.039,8.039,0,0,0,.086,1,1.542,1.542,0,0,0,.138.423h2.107v-.285A1.062,1.062,0,0,1,393.882,497.389Zm-2.359-6.293a3.172,3.172,0,0,1-1.86.483H385.8v-4.334h4.081a3.045,3.045,0,0,1,1.368.259,1.883,1.883,0,0,1,.957,1.847A2,2,0,0,1,391.523,491.1Z" fill="#161615"/>
    <path id="Path_15" data-name="Path 15" d="M406.538,485.423a5.533,5.533,0,0,0-4.851,2.349,7.5,7.5,0,0,0-1.278,4.4,7.3,7.3,0,0,0,1.493,4.713,6.407,6.407,0,0,0,9.428-.276,7.54,7.54,0,0,0,1.442-4.722,7,7,0,0,0-1.261-4.308A5.806,5.806,0,0,0,406.538,485.423ZM410,495.665a3.575,3.575,0,0,1-3.285,1.629,4.009,4.009,0,0,1-3.458-1.447,5.835,5.835,0,0,1-1.066-3.556,5.7,5.7,0,0,1,1.243-3.987,4.163,4.163,0,0,1,3.212-1.352,3.993,3.993,0,0,1,3.2,1.365,5.349,5.349,0,0,1,1.169,3.6A6.936,6.936,0,0,1,410,495.665Z" fill="#161615"/>
    <path id="Path_16" data-name="Path 16" d="M427.586,496.016l-6.325-10.247h-2.024v12.682h1.64V488.216l6.418,10.234h1.93V485.769h-1.64Z" fill="#161615"/>
    <path id="Path_17" data-name="Path 17" d="M441.9,485.423a5.536,5.536,0,0,0-4.852,2.349,7.5,7.5,0,0,0-1.277,4.4,7.3,7.3,0,0,0,1.493,4.713,6.407,6.407,0,0,0,9.428-.276,7.54,7.54,0,0,0,1.441-4.722,7,7,0,0,0-1.26-4.308A5.806,5.806,0,0,0,441.9,485.423Zm3.458,10.242a3.577,3.577,0,0,1-3.285,1.629,4.008,4.008,0,0,1-3.458-1.447,5.829,5.829,0,0,1-1.066-3.556,5.7,5.7,0,0,1,1.243-3.987A4.162,4.162,0,0,1,442,486.952a3.991,3.991,0,0,1,3.2,1.365,5.345,5.345,0,0,1,1.17,3.6A6.936,6.936,0,0,1,445.358,495.665Z" fill="#161615"/>
    <path id="Path_18" data-name="Path 18" d="M460.664,496.491l-3.646-10.722h-2.462v12.682H456.2v-7.485q0-.449-.026-1.4t-.026-1.42v-.389l3.655,10.7h1.7l3.621-10.7q0,1.027-.018,1.925t-.017,1.287v7.485h1.64V485.769h-2.444Z" fill="#161615"/>
    <rect id="Rectangle_2" data-name="Rectangle 2" width="1.735" height="12.682" transform="translate(474.137 485.769)" fill="#161615"/>
    <path id="Path_19" data-name="Path 19" d="M486.782,485.769l-4.776,12.682h1.761l1.375-3.8h4.976l1.324,3.8h1.882l-4.6-12.682Zm-1.133,7.485,2.029-5.6,1.952,5.6Z" fill="#161615"/>
    <path id="Path_20" data-name="Path 20" d="M174.784,457.8c.637.979,1.412,2.154,2.082,3.131q.665,1.122,1.346,2.24a1.894,1.894,0,0,0,1.126.844l.435.429.867.469c.474.164.554.024.594-.046,1,.079,1,.079,1-.747.129-.389.33-.739.42-1.059-.371-.329-.666-.6-.908-.837a1.9,1.9,0,0,0-.277-1.04A165.114,165.114,0,0,1,164.029,422.5a232.246,232.246,0,0,0,15.428-27.054c12.622-26.153,21.979-49.691,27.061-68.07,5.433-19.648,5.735-32.4.9-37.9a8.761,8.761,0,0,0-5.452-2.927,15.748,15.748,0,0,0-7.19.889c-4.9,1.633-10.72,6.646-16.385,14.118a108.436,108.436,0,0,0-12.5,21.676,1.4,1.4,0,0,0-.025-.263,4.231,4.231,0,0,0-.341,1.1q-1.5,3.469-2.828,7.1-.261.714-.513,1.432a20.466,20.466,0,0,0-1.51,3.8l-.046.412.1.131-.045.144-.058-.275a1,1,0,0,1-.148.568,10.9,10.9,0,0,0-.968,3.021l.5-1.446a3.48,3.48,0,0,1,.478-1.235q-1.243,4.016-2.252,8.119a28.019,28.019,0,0,1,1.2-5.154,20.311,20.311,0,0,0-1.449,5.8c-.525,1.318-.868,2.865-1.466,4.468a37.3,37.3,0,0,0-.769,4.587c-.287,1.8-.263,3.811-.524,5.743a8.673,8.673,0,0,0-.08,1.329,146.848,146.848,0,0,0-.775,28.136,150.289,150.289,0,0,0,5.5,31.11q-5.843,8.7-12.572,17.122a281.348,281.348,0,0,1-21.327,23.716c-.616.267-1.2.6-1.256,1.244-.39.383-.783.764-1.175,1.146a2.363,2.363,0,0,1-.43,0l-.6.707c-.294-.371-.544-.218-.774.2a6.213,6.213,0,0,1-1.58,1.578c-.36.424-.731.718-.677,1.371v.019q-.744.7-1.491,1.388l-.1.04c-.032.046-.061.091-.088.135q-.686.631-1.376,1.26l-.029-.351-.392.032a1.487,1.487,0,0,1-.088.783c-7.965,7.213-15.284,13.051-21.159,17.435a1.419,1.419,0,0,0-.935.694q-1.09.807-2.108,1.543a1.944,1.944,0,0,0-.332.239c-4.713,3.4-8.137,5.62-9.691,6.6-.724.236-1.492.428-2.391.737a28.039,28.039,0,0,1-4.629.932l-.539.645c-.952-.077-1.415-.385-1.929-.281l.052.257a5.044,5.044,0,0,0,3.37.793l-1.827-.435-.026-.128,1.183-.1.206-.308c.154.1.54.024.951.075a2.141,2.141,0,0,1,.542.694c-1.9,1.186-4.09.289-6.276.059.463.309.67.669,1.236.822a24.288,24.288,0,0,0,6.121-.162,5.334,5.334,0,0,0,2.193-.786,1.892,1.892,0,0,0,.174.385c.03.049.064.093.1.138a3.839,3.839,0,0,0-1.562.75,10.227,10.227,0,0,1-4.835.573l-.257.051.052.258a6.41,6.41,0,0,0,4.115-.16l3.174-.888a1.893,1.893,0,0,0,1.833-.066c.06-.036,2.413-1.456,6.392-4.188a.811.811,0,0,1,.272-.018,19.7,19.7,0,0,0,2.944-2.231q1.079-.768,2.257-1.626l.157-.013c.3-.258.526-.454.695-.611a293.186,293.186,0,0,0,23.149-18.946,290.358,290.358,0,0,0,31.655-33.563q5.853-7.315,11.058-14.867,1.713,5.339,3.827,10.613l-.135-.027.249,1.362c.408.772.6,1.426,1.049,2.128.681,1.286,1.322,2.642,1.795,3.633.3.639.839,1.711,1.358,2.743q1.564,3.279,3.286,6.528l-.15.043C173.575,455.129,174.094,456.7,174.784,457.8Zm-42.293,2.028c-1.612,1.665-2.944,3.482-4.65,5.1a19.864,19.864,0,0,1-3.163,3.217,18.593,18.593,0,0,1-2.264,2.211l-.063-.332,4.06-4.67a8.655,8.655,0,0,0,1.611-2.114c.156-.066.343.034.4-.081.558-.594.774-1.223,1.332-1.817,1.552-1.1,2.54-3.4,4.811-3.823C133.948,458.229,133.205,459.17,132.491,459.83Zm3.192-3.946c.369-1.141,1.021-1.685,1.582-1.385A10.48,10.48,0,0,0,135.683,455.884Zm4.528-4.42c-.249.015-.435.362-.622.262a.785.785,0,0,1-.685-.068l.059-1.01c.062-.116.373-.247.4-.529,1.612-1.666,3.007-3.151,4.526-4.867,1.362-2.1,2.448-3,3.842-4.936C145.664,444.861,142.844,448.112,140.211,451.464ZM196.379,354.3c-.343,1.408-.817,2.8-1.141,4.073a65.588,65.588,0,0,1-2.918,6.194c-.4.869-.993,1.31-1.24,2.068l-.019.13c-.668,2.685-1.946,5.013-3,7.64a37.425,37.425,0,0,1-3.385,6.654c.818-2.8,1.5-5.61,3.081-8.159a52.961,52.961,0,0,1,2.282-5.493,1.844,1.844,0,0,1,1.025-.642,8.975,8.975,0,0,1,1.894-5.552c.733-1.348,1.265-3.125,1.978-4.344.545-.979.72-2.147,1.446-2.569l.39-2.594c.622-1.5.946-2.775,1.42-4.163.168-.24.246-.759.415-1C198.455,349.3,198.065,351.9,196.379,354.3Zm-20.744-46.361c.676-.563.878-1.419,1.681-2.013l.323-.346-.564-.675c.774-.721.8-.594,1.194-1.225a38.356,38.356,0,0,1,7.145-8.557c1.705-1.345,2.283-1.751,4.948-3.592.706-.436,5.012-2.28,4.046-1.19-.007.541-3.6,1.355-3.8,1.671a13.32,13.32,0,0,1-2.154,1.72l-1.156.812c-.429,1.044-1.8,1.5-3.221,2.915a48.4,48.4,0,0,0-5.247,6.9l-.36.758-1.208,2.306c-.705.436-1.028.782-1.56,2.525-.226.187-.256.06-.413-.038a6.327,6.327,0,0,1,.727-2.058A.245.245,0,0,1,175.635,307.934Zm-19.941,49.237a44,44,0,0,1,1.8-8.179q-1.1,4.961-1.853,10.013Q155.692,358.087,155.694,357.171Zm4.606,58.6c-.848-2.76-1.488-5.575-2.2-8.236a117.37,117.37,0,0,1-2.622-22.378,1.571,1.571,0,0,1,.04-.689.811.811,0,0,1,.378.578c.626,4.856,1.009,9.64,1.669,14.623a70.759,70.759,0,0,0,1.939,10.613,93.909,93.909,0,0,1,2.366,9.278C160.593,418.546,160.6,416.914,160.3,415.773Zm-2.123-25.278a141.7,141.7,0,0,1,8.1-58.015c8.53-23.322,21.67-38.75,29.7-41.425a13.725,13.725,0,0,1,4.258-.825,5.507,5.507,0,0,1,4.316,1.763c2.215,2.519,4.938,10.332-1.708,34.367-1.181,4.271-2.6,8.83-4.238,13.637-.094.092-.207.229-.37.427-.2.617-.419,1.589-.635,2.482q-.518,1.47-1.063,2.97c-.074.019-.146.035-.217.05a.219.219,0,0,0,.129.194q-.57,1.57-1.168,3.171a11.849,11.849,0,0,1-1.391,2.246c.129-.027.157.1.285.074l.027.128-.735.96a.939.939,0,0,0,.254.694c-.072.185-.145.371-.217.557a1.5,1.5,0,0,0-.646,1.654q-.21.533-.422,1.068l-.259.056c-.041.357-.1.694-.166,1.012-4.466,11.182-9.834,23.3-15.988,36.049a226.954,226.954,0,0,1-13.366,23.83A146.075,146.075,0,0,1,158.177,390.495Z" fill="#161615"/>
    <path id="Path_21" data-name="Path 21" d="M368.755,397.336a1.906,1.906,0,0,0,2.651-.49l19.7-28.647a1.907,1.907,0,0,0-3.142-2.161l-19.7,28.647A1.906,1.906,0,0,0,368.755,397.336Zm11.134-18.11.108.027a11.069,11.069,0,0,1,1.768-2.886,26.237,26.237,0,0,1,2.528-3.613,28.6,28.6,0,0,0,1.93-2.615l1.467-1.7c.108.027.352-.026.54.137a7.664,7.664,0,0,1-1.441,2.049.833.833,0,0,1-.568-.029,1.725,1.725,0,0,1,.268.758c-.324-.083-.432-.11-.513-.246a5.376,5.376,0,0,0-.467,1.837l-.921.456a.855.855,0,0,0,.486.354l-.083.324-.756-.193c.108.028-.163.189-.082.324-.136.081-.246.513-.354.486l-.813.483c.081.136.081.136.189.163a2.954,2.954,0,0,1-1.141,1.321,10.449,10.449,0,0,1-.871,1.618c-.516.674-.817,1.4-1.36,2.185-.434.35-.544.782-1.114,1.213l-.217.4-.107-.487C378.829,380.682,379.561,380.063,379.889,379.226Zm-1.306,4.478a.409.409,0,0,0-.111-.334c0-.223.111-.112.222-.558.335.558.335.558-.111,1.338a.41.41,0,0,1-.111.334c-.112-.111-.112-.334-.335-.557C378.472,383.815,378.583,383.927,378.583,383.7Z" fill="#161615"/>
    <path id="Path_22" data-name="Path 22" d="M217.623,336.8a1.9,1.9,0,0,0,2.651-.491l19.7-28.646a1.907,1.907,0,1,0-3.142-2.161l-19.7,28.646A1.908,1.908,0,0,0,217.623,336.8Zm6.218-10.456.076.019a7.71,7.71,0,0,1,1.235-2.016,18.167,18.167,0,0,1,1.766-2.523A20.338,20.338,0,0,0,228.266,320l1.024-1.185c.076.019.246-.018.378.1a5.371,5.371,0,0,1-1.007,1.432.584.584,0,0,1-.4-.021,1.186,1.186,0,0,1,.187.53c-.226-.058-.3-.077-.358-.172a3.737,3.737,0,0,0-.326,1.283l-.643.319a.591.591,0,0,0,.339.246l-.058.227-.528-.134c.075.019-.114.131-.058.226-.094.056-.171.358-.246.339l-.568.338c.056.094.056.094.132.114a2.069,2.069,0,0,1-.8.922,7.247,7.247,0,0,1-.609,1.13c-.36.471-.57.98-.95,1.526-.3.244-.38.546-.777.847l-.152.283-.075-.341C223.1,327.363,223.612,326.931,223.841,326.347Zm-.912,3.127a.288.288,0,0,0-.077-.233c0-.156.077-.078.155-.389.234.389.234.389-.078.934a.286.286,0,0,1-.077.233c-.078-.077-.078-.233-.234-.389C222.852,329.552,222.929,329.63,222.929,329.474Z" fill="#161615"/>
    <path id="Path_23" data-name="Path 23" d="M552.8,367.914a258.8,258.8,0,0,0-32.611-82.882l-.8-2.608c-.373-.927-.466-2.634-1.914-2.4a1.819,1.819,0,0,1-.486-1.716l-.641-.67c.4-.254.274-.519-.113-.79a6.2,6.2,0,0,1-1.4-1.737c-.385-.4-.638-.8-1.294-.816-.262-.006-.515-.4-.512-.537a2.5,2.5,0,0,0-.417-.438l-.173-.252a2.964,2.964,0,0,1-.17-.508,2.646,2.646,0,0,0-.359-.265c-.31-.448-.625-.893-.938-1.338l.414.009.009-.393a1.333,1.333,0,0,1-.86-.238,261.149,261.149,0,0,0-111.51-89.911,259.2,259.2,0,0,0-48.892-15.177,262.992,262.992,0,0,0-104.976,0,259.03,259.03,0,0,0-93.134,39.191A261.21,261.21,0,0,0,57.655,319.022a259.125,259.125,0,0,0-15.177,48.892,262.944,262.944,0,0,0,0,104.976,259.238,259.238,0,0,0,11.251,39.048L55.6,519.39c.213.976.022,2.675,1.488,2.689a1.822,1.822,0,0,1,.194,1.773l.521.768c-.436.183-.356.465-.019.8a6.213,6.213,0,0,1,1.1,1.946c.312.46.5.9,1.14,1.02.257.049.441.485.416.614.288.589.466.357.551,1.307a3.532,3.532,0,0,0,.765.67c.187.4.373.792.561,1.187l-.721-.138-.074.386a1.254,1.254,0,0,1,.853.431l1.134,1.793q4.617,9.441,9.994,18.5a7.908,7.908,0,0,0,.955,1.6q3.46,5.739,7.21,11.29a261.249,261.249,0,0,0,103.885,89.542l-.187.205.979.173.888.418a2.136,2.136,0,0,0-.569.084l3.323,2c.618.08,1.41.166,2.331.235l.13.058c-.334-.029-.687-.06-1.061-.089a11.682,11.682,0,0,1,1.911.512c-.848-.085-1.716-.076-2.289-.1l-.02.094c.572.025,2.463.631,3.863.835l-.04.188-1.4-.2-.021.094a7.792,7.792,0,0,1,2.719.785c-.02.094-.868.009-.868.009l2.422.819c-.316.128-1.144-.05-1.185.138,1.359.392,2.719.784,3.25,1a104.8,104.8,0,0,0,19.013,5.872,258.84,258.84,0,0,0,26.407,6.876q7.094,1.452,14.291,2.507c9.974,2.4,13.069,2.734,23.189,3.511,4.786.367,9.882.372,12.148.353,3.128-.146,5.668-.048,7.668-.281a12.878,12.878,0,0,0,3.141-.338l-5.082-.2-.266-.214.715-.07a262.193,262.193,0,0,0,49.172-5.271,259.052,259.052,0,0,0,93.134-39.19,261.331,261.331,0,0,0,85.266-95.341c-1.489,1.961-3.266,3.94-3.565,4.508-1.232,2.613-2.694,5.1-3.98,7.539a98.077,98.077,0,0,1-13.888,17.882c-.122.232-.3.287-.538.458a.721.721,0,0,1,.075-.7c2.961-3.925,6.093-7.611,9.115-11.651a58.641,58.641,0,0,0,5.948-9.021c1.275-2.966,7.116-10.074,8.832-12.91q3.8-7.567,7.1-15.352A259.173,259.173,0,0,0,552.8,472.89a262.992,262.992,0,0,0,0-104.976ZM479.806,236.39c1.608,1.67,3.377,3.064,4.934,4.825a19.9,19.9,0,0,1,3.1,3.273,18.521,18.521,0,0,1,2.131,2.339l-.334.052-4.526-4.22a8.621,8.621,0,0,0-2.056-1.683c-.061-.158.046-.341-.068-.407-.574-.579-1.194-.816-1.768-1.394-1.049-1.59-3.311-2.657-3.655-4.941C478.257,234.879,479.171,235.655,479.806,236.39Zm-5.162-4.956a10.5,10.5,0,0,0,1.329,1.63C474.846,232.655,474.325,231.985,474.644,231.434Zm-2.931-3.049c.007.25.348.447.241.63a.784.784,0,0,1-.092.682l-1.007-.093c-.114-.067-.235-.382-.515-.422-1.609-1.669-3.044-3.115-4.707-4.692-2.049-1.434-2.917-2.551-4.8-4.011C465.3,222.705,468.455,225.637,471.713,228.385ZM250.647,168.032c-.38.107-.758.2-1.125.28l-2.01.32Q249.078,168.322,250.647,168.032ZM49.978,342.685a74.854,74.854,0,0,1,4.712-11.7c-.091.316-.1.565.02.687a13.064,13.064,0,0,0,1.588-3.522c.126-.128.249-.241.34-.335-.766,2.02-1.632,4-2.548,5.967.029-.133.061-.268.1-.4a1.7,1.7,0,0,0-.918.656,14.285,14.285,0,0,1-.918,3.147c0,.242-.221.6-.052.854-.748,1.76-1.505,3.5-2.342,5.341A3.678,3.678,0,0,1,49.978,342.685ZM38.775,420.7a44.513,44.513,0,0,1-.262-12.574c.393,0,.393.216.393.216.262,4.336.393,8.238.393,12.141A.567.567,0,0,1,38.775,420.7Zm.131-15.609c-.787-3.9-.131-7.806.656-11.708C40.217,395.983,40.217,395.983,38.906,405.09Zm5.936,68.554c-.849-2.761-1.489-5.576-2.2-8.237a117.211,117.211,0,0,1-2.622-22.378,1.555,1.555,0,0,1,.039-.689.811.811,0,0,1,.378.578c.626,4.856,1.009,9.64,1.669,14.623a70.761,70.761,0,0,0,1.94,10.613,94.248,94.248,0,0,1,2.365,9.278C45.134,476.416,45.146,474.784,44.842,473.644Zm77.212,136.208a119.137,119.137,0,0,1-20.531-19.489,5.35,5.35,0,0,1-.744-1.794c3.165,2.751,6.117,5.646,8.962,8.612,3.847,3.6,7.337,6.9,10.932,10.457-.249-.232-.5-.459-.733-.676-1.492-1.361-3.059-2.614-4.476-4.083-2.144-2.615-4.682-4.227-7.666-6.949a1.443,1.443,0,0,1,.014.169,45.12,45.12,0,0,0-4.565-4.145,33.9,33.9,0,0,0,4.672,4.75,3.619,3.619,0,0,0,.38.7,47.553,47.553,0,0,1,4.4,4.191c.41.286.876.931,1.437,1a15.476,15.476,0,0,1,2.238,2.042c.26.5.951.823,1.492,1.361a21.412,21.412,0,0,0,2.368,2.293l1.906,1.606C122.112,609.88,122.082,609.867,122.054,609.852Zm258.657,55.9-.03-.34c1.249-.1,5.637-2.286,5.79-1.588a22.62,22.62,0,0,0,5.576-1.963l1.1.206A82.716,82.716,0,0,1,380.711,665.75Zm69.605-38.433c2.416-.807,5.853-3.053,10.5-6.23C458.921,624.078,452.822,627.291,450.316,627.317Zm15.268-9.554-.967.772-1.443,1.223a3.186,3.186,0,0,1,1.207-2.12l1.443-1.223A.814.814,0,0,1,465.584,617.763Zm38.668-40.456c-.787.787-1.022,1.581-1.678,1.974l-.132.369-.288,1.068h-.132a2.231,2.231,0,0,0-.918-.131c.132-.394.132-.787.394-.787.262-.131.524-.177.655-.44-.131-1.312,1.05-2.315,2.1-4.151A10.613,10.613,0,0,1,504.252,577.307Zm45.59-109.03c-.9,1.773-2.225,3.718-2.278,5.026a29.492,29.492,0,0,1-2.71,10.752c-.361.9-.542,1.716-.9,2.529.361-.18.632-.271.723-.632a45.461,45.461,0,0,0,3.161-9.126,13.391,13.391,0,0,1,.732-2.228,255.251,255.251,0,0,1-38.1,89.305A257.423,257.423,0,0,1,397.542,656.9a255.36,255.36,0,0,1-48.176,14.954,259.158,259.158,0,0,1-103.457,0q-1.178-.24-2.355-.495a39.468,39.468,0,0,0,6.3.118l.183-.847-4.578-.2a103.938,103.938,0,0,1-10.967-1.19,255.182,255.182,0,0,1-80.354-36A257.423,257.423,0,0,1,61.144,520.306,255.357,255.357,0,0,1,46.19,472.131a259.16,259.16,0,0,1,0-103.457A255.224,255.224,0,0,1,84.808,276.9a258.363,258.363,0,0,1,21.172-27.209,3.275,3.275,0,0,0-.567.415c-1.094,1.013-1.892,1.324-2.48,1.962a18.116,18.116,0,0,0-2.928,3.4l-1.846,2.173c-1.444,1.635-2.515,3.073-3.773,4.61a35.619,35.619,0,0,0-2.276,3.057,39.183,39.183,0,0,0-2.568,2.991,40.746,40.746,0,0,1-2.812,3.775c-.7,1.243-1.729,2.55-2.387,3.662-.886,1.34-1.4,2.484-2.231,3.906a13.1,13.1,0,0,0-.891,2.108,2.577,2.577,0,0,1,.28-1.9c.431-.882,1.584-2.582,1.922-3.415.535-.719.914-1.684,1.543-2.452.9-1.128,1.554-2.239,2.544-3.416.752-1.161,1.514-2.109,2.265-3.269.711-1.03,1.485-1.765,2.154-2.664,1.136-1.144,1.835-2.386,2.877-3.482.989-1.177,3.33-3.939,4.174-5.149.041-.131,5.083-6.064,9.106-8.729l.06.014q3.91-4.279,8-8.379a257.107,257.107,0,0,1,81.584-55.005A255.207,255.207,0,0,1,231.2,172.425a2.358,2.358,0,0,1,.272.193l.9-.242c.032.472.324.489.748.278a6.214,6.214,0,0,1,2.2-.4c.537-.145,1.009-.177,1.335-.746a.706.706,0,0,1,.716-.193c.652-.08.489-.324,1.416-.1.961-.356.994-.941,2.345-.923l-.523.911.341.2a1.255,1.255,0,0,1,.685-.667l2.8-.661a.129.129,0,0,1-.048-.179l1.009-.177.179-.048c.293.017,2.131-.289,3.01-.238a6.1,6.1,0,0,0,1.791-.484,10.662,10.662,0,0,0,1.725-.371c.406.082,3.922-.773,4.865-.836a1.019,1.019,0,0,0,.961-.356l4.866-.836c.145.537,2.683.331,3.953-.3a3.545,3.545,0,0,0,.864-.715c1.839-.305,2.066-.174,4.312-.4l.072-.126c8.51-.844,17.08-1.27,25.653-1.27a258.574,258.574,0,0,1,51.728,5.214,255.25,255.25,0,0,1,91.773,38.619A257.4,257.4,0,0,1,534.131,320.5c3.175,7.506,5.992,15.182,8.437,22.975-.09.817-.155,1.712.64,2.067q.184.606.365,1.211a2.149,2.149,0,0,1-.295.654l.336.865c-.466.081-.452.374-.2.773a6.2,6.2,0,0,1,.634,2.141c.2.519.282.985.883,1.249a.707.707,0,0,1,.268.692c.149.639.374.452.244,1.4a3.152,3.152,0,0,0,.51.724q.18.688.357,1.377l-.661-.291-.158.36a1.252,1.252,0,0,1,.735.61l.867,2.464q1.076,4.439,1.991,8.907a259.248,259.248,0,0,1,.756,99.6Z" fill="#161615"/>
    <path id="Path_24" data-name="Path 24" d="M494.472,459.055a7.654,7.654,0,0,1-1.474.265,1.906,1.906,0,0,0-2.021-1.4,7.425,7.425,0,0,1-3.353-.322c-.345-.324-.657-.656-.968-.952l-.591-.1c-.073-.08-.143-.163-.21-.25-1.488-1.933-1.809-5.8-.9-10.891.312-1.756.724-3.4,1.1-4.72.344-1.063.673-2.111.993-3.127a1.907,1.907,0,0,0-.5-1.951c1.781-5.562,1.407-9.673.552-12.428a12.014,12.014,0,0,0-6.378-7.565,9.4,9.4,0,0,0-7.5.068c-5.694,2.255-11.371,8.91-14.815,17.366s-4.031,17.178-1.535,22.77a11.822,11.822,0,0,0,1.2,2.108q-1.967.454-4.116.768c-4.066.574-6.9.061-8.427-1.524-2.971-3.087-1.625-10.539-.438-17.114a54.061,54.061,0,0,0,1.251-10.4c-.123-3.963-1.65-6.367-4.54-7.145-3.295-.887-6.668.705-10.027,4.731a36.153,36.153,0,0,0-2.768,3.856,36.492,36.492,0,0,0,.24-4.26c-.044-5.17-1.575-8.448-4.552-9.742a5.57,5.57,0,0,0-4.629.141,14.3,14.3,0,0,0-4.883,4.215c3.25-10.449,4.621-18.167,2.612-22.348a5.542,5.542,0,0,0-3.27-2.966c-5.128-1.71-9.519,3.278-12.374,7.179-.477.65-.958,1.341-1.443,2.065.639-1.114,1.319-2.252,2.064-3.539l-1.611,1.627c-.709.7-2.245,1.457-1.469,2.7a1.821,1.821,0,0,1-1.391,1.117l-.367.851c-.389-.269-.584-.05-.683.412a6.2,6.2,0,0,1-1.052,1.97c-.22.511-.489.9-.247,1.51a.707.707,0,0,1-.294.681c-.343.559-.051.584-.807,1.167-.319.973.118,1.364-.736,2.41l-.388-.976-.366.145a1.254,1.254,0,0,1,.1.951l-1.224,2.6a.128.128,0,0,1,.17.073l-.489.9-.074.17c-.195.219-1.1,1.849-1.687,2.505a6.087,6.087,0,0,0-.735,1.7,10.684,10.684,0,0,0-.783,1.581c-.317.267-1.835,3.552-2.373,4.329a1.018,1.018,0,0,0-.319.974l-2.373,4.329c-.511-.22-1.929,1.9-2.225,3.282a5.474,5.474,0,0,0-.014.917q-.993,1.679-2.012,3.332c-.1.151-.207.315-.324.495l.007.017c-1.285,2.066-2.6,4.088-3.947,6.028-3.2,4.619-4.8,5.678-5.327,5.92-.244-.483-.761-2.089-.512-6.789a123.164,123.164,0,0,1,1.74-13.783c1.657-9.6,3.885-18.78,3.907-18.871a1.907,1.907,0,0,0-3.691-.958c-3.744,13.593-12.845,36.811-21.324,41.251a4.714,4.714,0,0,1-3.885.454c-2.871-1.007.275-10.117,2.573-16.769,1.587-4.6,3.229-9.349,3.84-13.266a14.017,14.017,0,0,0-.05-5.624,5.9,5.9,0,0,0-3.387-4.116,5.573,5.573,0,0,0-4.63.141c-1.923.874-3.937,2.79-6.065,5.782.534-1.8,1.032-3.575,1.48-5.29,2.612-10.006,3.032-16.285,1.323-19.762A5.627,5.627,0,0,0,337.764,395c-3.472-1.157-6.638.749-9.236,3.345a43.668,43.668,0,0,0-8.824,9.8c-.244.162-.6.47.014,1.187a48.538,48.538,0,0,1,4.166-5.154c-1.886,2.779-3.846,6.09-5.869,9.7-.357.543-.711,1.088-1.056,1.639l-.022-.069a2.341,2.341,0,0,0-.672.906c-.507.99-1.264,2.061-1.816,3.341.082,0,.156,0,.224-.006-.118.263-.233.529-.341.8a3.547,3.547,0,0,0,.117-.792c0,.415-.463.7-.426,1.241a.146.146,0,0,0,.083.087l-.293.544-.084-.261-3.044,5.944a.491.491,0,0,0,.028.076c-4.014,7.428-8.456,15.432-13.287,22.657-2.647,3.96-4.1,5.2-4.7,5.577-.244-.681-.632-2.589-.249-7.48a152.4,152.4,0,0,1,2.17-15.13c1.944-10.521,4.43-20.574,4.455-20.674a1.907,1.907,0,0,0-3.623-1.163,125.84,125.84,0,0,1-15.1,26.358c12.413-19.969,21.32-38.337,26.477-54.606a100.838,100.838,0,0,0,4.653-22.094c.536-6.715-.016-12.569-1.639-17.4-2.351-7-6.871-11.814-13.433-14.309-4.671-1.776-10.109-1.882-16.023-.349,6.588-4.9,10.887-6.27,11.022-6.312a1.907,1.907,0,0,0-1.084-3.656c-.335.1-8.331,2.544-19.529,13.055q-.738.693-1.473,1.413c-10.533,5.735-21.572,15.629-31.346,28.145a150.286,150.286,0,0,0-24.942,47.3c-3.616,11.627-4.379,22.585-2.207,31.688a32.452,32.452,0,0,0,9.7,16.995,29.51,29.51,0,0,0,1.589,4.828,17.422,17.422,0,0,0,7.957,9,15.935,15.935,0,0,0,7.3,1.677c4.885,0,10.406-1.9,16.143-5.622a70.41,70.41,0,0,0,13.438-11.708,71.905,71.905,0,0,0,6.967-5.446c7.813-6.9,14.03-16.3,17.987-23.229-.431,2.129-.862,4.352-1.264,6.581a137.136,137.136,0,0,0-2.107,15.833c-.334,6.06.442,9.052,2.6,10,1.418.626,3.011.168,4.735-1.362a30.933,30.933,0,0,0,4.689-5.8c5.774-8.635,10.959-18.282,15.534-26.793,4.308-8.014,8.377-15.583,12.034-20.593,3.514-4.814,6.259-6.808,8.394-6.1a1.768,1.768,0,0,1,1.066,1.03c.738,1.5,1.151,4.953-.573,12.882l-.1.052-3.6,10.181a5.027,5.027,0,0,0,.7.931c-.12.4-.241.79-.365,1.188a21.469,21.469,0,0,0-1.1,1.881.312.312,0,0,0,.43.132c.02-.017.036-.036.054-.054q-.211.664-.426,1.331l-.587.31a99.028,99.028,0,0,0-4.065,13.406l-.246.708c-2.18,6.264-4.238,12.181-5.411,16.446a1.907,1.907,0,0,0,3.656,1.082c.029-.09,2.9-9.1,6.872-18.52,6.8-16.126,11.078-20.016,13.021-20.9a1.734,1.734,0,0,1,1.53-.115c.48.208,1.94.843,1.19,5.656a82.457,82.457,0,0,1-3.676,12.608,81.3,81.3,0,0,0-3.681,12.638c-.771,4.882.39,7.9,3.45,8.974a8.429,8.429,0,0,0,6.916-.674c4.737-2.48,9.648-9.2,14.6-19.974.056-.121.111-.241.166-.362a93.949,93.949,0,0,0-1.024,10.334c-.167,5.527.7,8.415,2.815,9.366a3.3,3.3,0,0,0,1.368.3c2.916,0,5.974-3.78,8.649-7.636,5.791-8.349,10.985-18.046,15.568-26.6,4.091-7.636,7.955-14.849,11.47-19.65,3.371-4.6,6.017-6.505,8.092-5.814a1.705,1.705,0,0,1,1.039,1c.785,1.635,1.127,5.707-1.7,15.823-2.1,7.52-5.4,16.455-8.311,24.338-2.55,6.912-4.96,13.441-6.249,18.129a1.907,1.907,0,0,0,3.656,1.082c.028-.09,2.906-9.124,6.882-18.545,6.8-16.106,11.069-19.991,13.01-20.874a1.736,1.736,0,0,1,1.531-.115c2.661,1.157,2.966,7.38.884,16.828a1.411,1.411,0,0,1-.038-.308c-.249.5-.615.879-.2,1.365q-.157.678-.331,1.375-.131.522-.265,1.04c.042-.206.088-.416.142-.632a1.7,1.7,0,0,0-.918.655,14.279,14.279,0,0,1-.918,3.148c0,.262-.262.656,0,.918a4.561,4.561,0,0,1-.394,1.574c-.263.263-.131.656-.263,1.049a6.513,6.513,0,0,0-.524,1.7l-.172.991c-1.584,4.407-2.525,7.61-2.59,7.835a1.907,1.907,0,0,0,3.6,1.243c.112-.28,2.164-5.423,4.175-12.03.783-1.994,1.656-4.088,2.6-6.157,4.779-10.443,9.462-15.909,12.847-15,.436.118,1.26.342,1.587,2.2l-1.258,7.94a3.694,3.694,0,0,0,.638.583q-.1.591-.21,1.195c-.163.4-.3.838-.444,1.271a.212.212,0,0,0,.2.092q-.1.563-.2,1.127l-.151.119a66.886,66.886,0,0,0-1.172,11.562c.078.1.115.144.161.143a11.363,11.363,0,0,0,2.823,7.4c2.457,2.552,6.286,3.422,11.717,2.655a51.165,51.165,0,0,0,7.193-1.555c.162.07.327.136.495.2,4.185,1.5,7.983,1.431,11.286-.209,2.781-1.381,5.2-3.857,7.342-7.532a13.576,13.576,0,0,0,.658,2.72l-.025.171.084-.012a9.25,9.25,0,0,0,1.3,2.372,8.323,8.323,0,0,0,6.542,3.149,18.39,18.39,0,0,0,2.058.077,10.651,10.651,0,0,0,3.112-.578,12.865,12.865,0,0,0,1.954-.866c.362-.193.652-.289.8-.578l-1.3.192-.073-.192c1.375-.963,1.809-.963,2.533-1.83v-.866l-1.158.77A8.51,8.51,0,0,1,494.472,459.055ZM211.24,433.544a16.466,16.466,0,0,1-.263-7.607c.394,0,.394.131.394.131a72.821,72.821,0,0,1,.393,7.345A.788.788,0,0,1,211.24,433.544Zm.131-9.443c-.787-2.361-.131-4.722.655-7.082C212.682,418.592,212.682,418.592,211.371,424.1Zm91-32.883v.131c.787.918-.131,1.836-.394,2.492a11.167,11.167,0,0,1-1.7,3.279c-.131.262-.394.393-.525.656l.525-1.443c-.263,0-.394.131-.656.262a.128.128,0,0,0-.131-.131,10.412,10.412,0,0,1,.524-1.18,3.607,3.607,0,0,0,.132-1.18,1.413,1.413,0,0,1,.787-1.443c.394-.131.656-.394.131-.918a1,1,0,0,0,.656-.263v-1.442a5.89,5.89,0,0,0,1.443.131,12.047,12.047,0,0,1,.393-1.181C303.547,390.3,303.022,391.349,302.367,391.218Zm.076-2.369c-.2.171-.2.171-.284.072a21.451,21.451,0,0,0,1.118-2.521c.085.1.185.014.27.113A20.927,20.927,0,0,0,302.443,388.849Zm2.911-7.874a.129.129,0,0,1-.185-.014l.892-1.979c.1-.086.27.113.27.113Zm3.15-14.831c.086.1.284-.072.284-.072a20.09,20.09,0,0,1-.079,2.319c-.1.086-.1.086-.271-.113A17.06,17.06,0,0,0,308.5,366.144Zm.04,4.467a10.785,10.785,0,0,0-.549,2.376l-.37-.027a22.1,22.1,0,0,0,.535-2.192C308.359,370.6,308.444,370.7,308.544,370.611Zm-45.628-27.975c.99-1.177,3.331-3.939,4.175-5.149.041-.13,5.083-6.064,9.105-8.729.437.1,1.071.31.855.751-.96.833-2.753,1.341-3.527,2.077-1.1,1.013-1.892,1.324-2.48,1.962a18.158,18.158,0,0,0-2.929,3.4l-1.845,2.173c-1.444,1.635-2.516,3.073-3.773,4.61a35.844,35.844,0,0,0-2.277,3.057,39.388,39.388,0,0,0-2.567,2.991,40.581,40.581,0,0,1-2.813,3.775c-.7,1.243-1.728,2.55-2.386,3.662-.886,1.34-1.4,2.484-2.231,3.906a13.006,13.006,0,0,0-.891,2.108,2.577,2.577,0,0,1,.28-1.9c.431-.882,1.584-2.582,1.921-3.415.536-.719.915-1.684,1.544-2.452.9-1.128,1.554-2.239,2.544-3.416.751-1.161,1.514-2.109,2.265-3.269.711-1.03,1.485-1.765,2.154-2.664C261.176,344.974,261.875,343.732,262.916,342.636ZM219.377,446.223q0,2.247.157,4.327a30.779,30.779,0,0,1-4.964-11.083c-2.014-8.437-1.274-18.7,2.138-29.671a146.438,146.438,0,0,1,24.306-46.089,121.784,121.784,0,0,1,17.846-18.65q-3.4,4.377-6.664,9.3a218.5,218.5,0,0,0-19.964,38.9,213.437,213.437,0,0,0-9.819,30.086A101.176,101.176,0,0,0,219.377,446.223Zm12.461,21.557a13.528,13.528,0,0,1-5.986-6.7c6.167,3.369,13.5,4.4,21.338,2.991a43.671,43.671,0,0,0,6.917-1.861q-1.315.977-2.629,1.829C243.826,469,236.851,470.332,231.838,467.78Zm13.778,1.336c2.416-.807,5.853-3.052,10.5-6.23C254.221,465.878,248.123,469.091,245.616,469.116Zm15.268-9.554-.967.772-1.443,1.224a3.194,3.194,0,0,1,1.207-2.121l1.443-1.223A.814.814,0,0,1,260.884,459.562Zm3.6-6.94a47.615,47.615,0,0,1-17.968,7.693c-7.658,1.38-14.716.162-20.411-3.524a24.087,24.087,0,0,1-2.084-1.511,45.741,45.741,0,0,1-.828-9.058,93.583,93.583,0,0,1,2.429-19.731c.189.087.423.18.711.286a9.612,9.612,0,0,0,.2-2.814l-.283.071-.1.132c.057-.238.113-.477.171-.717a2.827,2.827,0,0,0,.906-1.5l1.036-5.478-.093.023c.219-.76.448-1.528.681-2.3a4.62,4.62,0,0,0,.183.547c.487-1.657.692-3.243,1.819-4.754a2.76,2.76,0,0,0-.786.331c.146-.449.293-.9.444-1.351.039.05.08.1.125.154a30.394,30.394,0,0,0,1.61-4.394,4.122,4.122,0,0,0,.56-1.37,124.791,124.791,0,0,0,3.355-8.859c-.963,2.007-2.337,3.333-3.123,5.291a54.594,54.594,0,0,1-2.645,6.4c-1.1,2.28-1.561,4.676-2.479,6.963-.393-1.963.319-3.7.744-5.17a92.438,92.438,0,0,1,4.859-11.146,5.545,5.545,0,0,1,2.994-3.371,13.969,13.969,0,0,1,1.054-2.352c-.154.1-.3.184-.438.258.128-.307.255-.613.384-.917a4.089,4.089,0,0,1,.548.228,13.157,13.157,0,0,1,.746-3.241q1.363-3.123,2.774-6.128c.039-.047.078-.094.118-.139l-.011-.087a196.362,196.362,0,0,1,13.528-24.379,126.925,126.925,0,0,1,16.428-20.393q.909-.484,1.811-.923c8.291-4.036,15.772-4.991,21.633-2.762a18.366,18.366,0,0,1,11.174,11.96c2.939,8.749,1.89,21.587-3.035,37.126-5.073,16-14.3,34.924-26.689,54.72A116.278,116.278,0,0,1,264.482,452.622Zm23.9-23.051A98.154,98.154,0,0,1,274.5,447.453c-.122.232-.3.286-.538.457a.724.724,0,0,1,.074-.7c2.962-3.925,6.094-7.61,9.116-11.651a58.6,58.6,0,0,0,5.948-9.021,77.485,77.485,0,0,1,4.585-8.406c.433,1.711-.767,2.857-1.318,3.9C291.133,424.645,289.67,427.135,288.385,429.571Zm16.381,11.951a11.149,11.149,0,0,0-.764,2.132,11.19,11.19,0,0,1-1.2,2.323q-.035.193-.388-.066c-.13-.022-.259-.045-.237-.174.2-.365.347-.473.477-.45.022-.13-.085-.281-.126-.82.3-.215.672-.817,1.126-1.138-.192-.432-.126-.82.413-.861a2.6,2.6,0,0,1,.07-1.186,1.861,1.861,0,0,1,1.234-.986.457.457,0,0,0,.236.173C305.264,440.942,304.81,441.263,304.766,441.522Zm5.737-10.2a1,1,0,0,0-.218.495c-.066.388-.24.624-.37.6l.064.41c-.7.945-1.086,1.677-1.367,1.762a3.947,3.947,0,0,0-1.089,2.475c.063.41-.217.495-.627.558.425,1.4-.975,1.031-1.193,1.525a.457.457,0,0,0-.236-.173c1.694-2.9,3.237-5.7,5.084-8.71a1.418,1.418,0,0,1,.624.24C311.153,430.64,310.569,430.939,310.5,431.327Zm14.465-23.871a11.221,11.221,0,0,1-1.868,3.14c-.044.259-.432.193-.843.256.086.28.322.454.407.735-.28.085-.669.018-.949.1a9.306,9.306,0,0,0-.462,1.917c-.236-.174-.365-.2-.472-.347a5.251,5.251,0,0,0-.609,1.226,4.25,4.25,0,0,1,1.012.306l-.045.259a2.818,2.818,0,0,0-1.337.037c.13.022.085.281.063.41-.151.107-.195.366-.325.344a7.4,7.4,0,0,0-.823.923l.517.089A5.513,5.513,0,0,1,318,418.639a6.239,6.239,0,0,0-1.044,2.216,15.533,15.533,0,0,0-1.477,2.408l-1.451,1.481s-.044.259.451.477c-.41.062-.518-.089-.691.147-.214-.3-.451-.476-.3-.583a15.289,15.289,0,0,1,1.779-2.623l.151-.107a9.173,9.173,0,0,1,1.872-3.938c.524-1.507,1.953-2.859,2.865-4.3.587-1.1,1.24-2.582,1.957-3.658a5.656,5.656,0,0,1,.912-1.44,4.249,4.249,0,0,1,.306-1.012c.517.088.927.026,1.186.07a5.2,5.2,0,0,0-.3-.584,5.214,5.214,0,0,1,.583-.3c.022-.129-.107-.151-.366-.2.045-.258.325-.343.521-.709C325.511,406.618,325.511,406.618,324.968,407.456Zm1.268,44.645c-.111,1.131-.375,2.27-.55,3.329a2.407,2.407,0,0,1-.416-2.086l.832-3.191C326.487,450.587,326.362,451.344,326.236,452.1Zm5.206-13.52c-1.382,3.29-2.495,6.342-3.724,9.625-.5-.2-.295-.513-.245-.816,1.261-4.862,2.05-5.947,5.367-14.953a5.957,5.957,0,0,1,2.429-3.184Zm12.647,13.573-.54.337a1.538,1.538,0,0,1-.573-.517c.158-.349.113-.821.271-1.169.169-.731.248-1.406.609-2.631.37.394.663.461.629.608C344.3,449.894,344.214,450.952,344.089,452.154Zm.534-7.959c.473-1.045,1.092-2.056,1.475-3.045a.558.558,0,0,1,.573.517c-.067.292.045.472-.079.675-.608,1.629-1.014,3.382-1.712,5.068-.034.146.022.236-.012.382l-.112-.18a.328.328,0,0,1,.124-.2A3.041,3.041,0,0,1,344.623,444.2Zm20.457-5.142h-.132a2.231,2.231,0,0,0-.918-.131c.132-.393.132-.787.394-.787.262-.131.656-.131.787-.393Zm2.1-3.41a13.926,13.926,0,0,1-1.966,1.967c-.05-1.251.953-2.292,1.966-4.066A10.624,10.624,0,0,1,367.178,435.643Zm20.128-2.956c-.008.1-.3-.023-.393-.131.108-.092.123-.292.239-.485.2.016.3.023.393.131A.768.768,0,0,1,387.306,432.687Zm.947-1.841c-.254.686-.562.763-.824.239a7.086,7.086,0,0,0,.67-.855,5.539,5.539,0,0,0,.462-.77l.316-.177C388.638,429.768,388.484,430.461,388.253,430.846Zm1.88-1.063c-.224.285-.4-1.34.546-1.872l.2.015A4.791,4.791,0,0,0,390.133,429.783Zm4.319-8.173a3.987,3.987,0,0,0,.608-1.364C395.376,421.378,395.376,421.378,394.452,421.61Zm6.705-13.242c-.809,1.348-1.725,2.788-2.656,4.429-.693,1.155-1.309,2.619-2.217,3.96-1.725,2.788-3.35,5.585-5.09,8.574-.138.493-.369.878-.677.955a3.123,3.123,0,0,0-.832,1.649A1.743,1.743,0,0,1,389,428.99c-.069-.408-.031-.909.177-.994a19.128,19.128,0,0,1,1.262-3.328c.477-.97,1.04-1.733,1.617-2.7,1.986-3.574,4.181-7.233,6.144-10.507,1.155-1.926,2.649-4.33,4-6.24.023-.3.092.107.315-.178A15.113,15.113,0,0,1,401.157,408.368Zm-.426,51.211c-.655-2.36.656-4.2,1.444-6.3C402.962,455.776,400.862,457.481,400.731,459.579Zm4.329-15.345c0,1.836-.131,3.673-1.836,4.984a1.924,1.924,0,0,1-.787,2.623,3.915,3.915,0,0,1,.787-2.623,12.645,12.645,0,0,1,1.836-4.984,7.321,7.321,0,0,1,1.311-3.541A4.453,4.453,0,0,1,405.06,444.234Zm5.64-15.477c-.788,2.493-1.575,4.985-2.23,7.607,0,.394-.656.525-.787.918.131-3.54,1.7-6.426,2.623-9.574.263-.131.394-.262.394-.524A6.3,6.3,0,0,1,410.7,428.757Zm1.836-7.738h-.262a16.886,16.886,0,0,1,.524-2.492c.131,0,.131.263.525.263A11.082,11.082,0,0,0,412.536,421.019Zm12.591,22.321c.394-1.7.394-1.7,1.7-3.411A11.827,11.827,0,0,1,425.127,443.34Zm6.033-11.674a19.93,19.93,0,0,1-2.23,3.935,10.253,10.253,0,0,1,2.754-5.246C431.422,431.142,431.422,431.535,431.16,431.666Zm11.157,20.4c.164,1.75.4,2.629.451,4.306a30.852,30.852,0,0,1-1.176-9.317c.162-.127.108-.4.288-.433a.775.775,0,0,1,.505-.289l.487.559c.018.09-.126.307,0,.469C442.639,449.005,442.46,450.448,442.317,452.07Zm-.294-8a6.57,6.57,0,0,0,.359-1.479C442.725,443.362,442.563,443.957,442.023,444.066Zm1.563-7.159c-.486,1.316.038,2.992-1.3,4.292a18.537,18.537,0,0,1,.214-2.2c.234-1.641.2-3.227.52-4.887a12.028,12.028,0,0,1,.484-3.191,11.292,11.292,0,0,1,.395-2.236l.217.144-.339,4.381a4.991,4.991,0,0,0,0,1.876c-.072.108-.252.144-.234.234C443.477,435.9,443.658,436.33,443.586,436.907Zm13.539,8.4a2.848,2.848,0,0,1-.347-.74,35.932,35.932,0,0,1,4.231-14.665,3.489,3.489,0,0,1,1.046-.858,41.365,41.365,0,0,1-1.932,6.433C459.177,438.9,458.31,441.94,457.125,445.312Zm-3.256,16.642-.031-.34c1.25-.1,5.638-2.286,5.791-1.589a22.554,22.554,0,0,0,5.576-1.963l1.1.206A82.882,82.882,0,0,1,453.869,461.954Zm17.906-4.467a8.543,8.543,0,0,1-3.67.89,32.487,32.487,0,0,0,9.857-7.727C476.285,453.739,474.276,456.245,471.775,457.487Zm11.243-19V438.4c0-.091.091-.181.091-.271,0,.09,0,.09.09.18C483.109,438.306,483.109,438.4,483.018,438.488Zm-3.8,3.877a32.755,32.755,0,0,1-9.787,10.812,30.82,30.82,0,0,1-7.284,3.588,6.7,6.7,0,0,1-1.8-2.5c-2.055-4.6-1.433-12.367,1.585-19.776s8-13.4,12.687-15.259a7.073,7.073,0,0,1,2.594-.55,4.53,4.53,0,0,1,1.91.4c.147.067.291.141.432.218a6.07,6.07,0,0,1,1.924,2.382,11.311,11.311,0,0,1,1.355,6.234,29.469,29.469,0,0,1-2.711,10.751c-.361.9-.542,1.717-.9,2.53.361-.181.632-.271.723-.633a45.43,45.43,0,0,0,3.162-9.125,18.6,18.6,0,0,0,0-7.409v-.659c.127.3.242.615.343.939C484.9,428.969,483.394,435.381,479.218,442.365Z" fill="#161615"/>
  </g>
</svg>
